<svg width="604" height="591" viewBox="0 0 604 591" fill="none" xmlns="http://www.w3.org/2000/svg">
<path d="M0.377541 106.362V212.487L171.687 210.884L342.668 209.28L386.233 251.602L429.469 293.603L473.361 250.64L516.925 207.998L555.904 208.639C577.522 209.28 596.848 209.28 599.141 208.96C602.089 208.639 603.071 185.555 603.071 104.438V0.237152H301.724H0.377541V106.362ZM550.663 106.041V160.546H522.166H493.342L461.897 192.288L430.452 224.029L398.024 192.288L365.597 160.546H209.355H52.7857V106.041V51.5361H301.724H550.663V106.041Z" fill="#6258BB" fill-opacity="0.5"/>
<path d="M129.76 336.887L87.1786 378.567H43.9418H0.377541V484.371V590.175H301.724H603.071V484.371V378.567H430.452H257.505L214.923 336.887L172.342 295.206L129.76 336.887ZM394.421 429.866H550.663V484.371V538.876H301.724H52.7857V484.371V429.866H79.6449H106.177L139.259 397.804L172.342 366.063L205.097 397.804L237.852 429.866H394.421Z" fill="#6258BB" fill-opacity="0.5"/>
</svg>
